<?xml version="1.0" standalone="no"?><!DOCTYPE svg PUBLIC "-//W3C//DTD SVG 1.1//EN" "http://www.w3.org/Graphics/SVG/1.1/DTD/svg11.dtd"><svg t="1712663726431" class="icon" viewBox="0 0 1024 1024" version="1.1" xmlns="http://www.w3.org/2000/svg" p-id="961" xmlns:xlink="http://www.w3.org/1999/xlink" width="200" height="200"><path d="M428.957 62.502v417.092H12V62.502z" fill="#A1D06B" p-id="962"></path><path d="M428.957 583.908V1001H12V583.908z" fill="#19A15F" p-id="963"></path><path d="M961.35 593.908V1011H544.393V593.908z" fill="#7FB546" p-id="964"></path><path d="M985.266 437.065l-70.08-69.925c22.572-34.993 35.693-76.587 35.693-121.356C950.879 122.124 850.888 22 727.39 22c-123.496 0-223.487 100.248-223.487 223.784 0 123.66 99.99 223.784 223.487 223.784 44.772 0 86.497-13.2 121.445-35.865l69.956 69.8c19.899 19.863 50.928 21.108 69.273 2.802 18.281-18.307 17.038-49.377-2.799-69.24z m-258-41.967c-82.206 0-148.99-66.75-148.99-149.19 0-82.315 66.66-149.189 148.99-149.189 82.332 0 148.993 66.75 148.993 149.19-0.125 82.44-66.786 149.189-148.992 149.189z" fill="#19A15F" p-id="965"></path></svg>